<svg xmlns="http://www.w3.org/2000/svg" viewBox="0 0 100.254 81.768"><title>bee</title><circle cx="64.64" cy="21.818" r="7.699" transform="rotate(-64.561 51.529 17.825)" fill="#fff"/><circle cx="80.894" cy="29.55" r="7.699" transform="rotate(-64.561 67.782 25.556)" fill="#fff"/><path d="M36.645 74.313l3.917 1.863a15.652 15.652 0 0 0 16.01-1.581l-28.8-13.7a15.65 15.65 0 0 0 8.873 13.418zm29.906-52.775l-3.917-1.863a15.65 15.65 0 0 0-15.827 1.446L75.416 34.73a15.649 15.649 0 0 0-8.865-13.192zM30.06 51.805l3.671-7.72 32.117 15.278-3.672 7.719zm7.619-16.019l3.425-7.2L73.22 43.863l-3.425 7.2zm-18.168 10.27A13.77 13.77 0 0 1 8.037 21.02c6.913-3.169 37.734-2.244 37.734-2.244s-19.344 24.107-26.26 27.28zm53.637 25.386a13.77 13.77 0 0 0 26.664-6.894c-1.9-7.363-22.069-30.691-22.069-30.691s-6.5 30.226-4.595 37.585z" fill="#fff"/></svg>