<svg xmlns="http://www.w3.org/2000/svg" viewBox="0 0 100.254 81.768"><title>bee</title><circle cx="64.64" cy="21.818" r="7.699" transform="translate(13.298 56.701) rotate(-64.561)" fill="#fff"/><circle cx="80.894" cy="29.55" r="7.699" transform="translate(15.588 75.789) rotate(-64.561)" fill="#fff"/><path d="M40.518,88.43l3.917,1.863a15.652,15.652,0,0,0,16.01-1.581l-28.8-13.7A15.65,15.65,0,0,0,40.518,88.43Z" transform="translate(-3.873 -14.117)" fill="#fff"/><path d="M70.424,35.655l-3.917-1.863A15.65,15.65,0,0,0,50.68,35.238L79.289,48.847A15.649,15.649,0,0,0,70.424,35.655Z" transform="translate(-3.873 -14.117)" fill="#fff"/><rect x="47.553" y="51.92" width="8.548" height="35.565" transform="translate(-37.253 72.445) rotate(-64.561)" fill="#fff"/><rect x="55.337" y="36.16" width="7.973" height="35.565" transform="translate(-18.745 70.225) rotate(-64.561)" fill="#fff"/><path d="M23.384,60.173A13.77,13.77,0,0,1,11.91,35.137c6.913-3.169,37.734-2.244,37.734-2.244S30.3,57,23.384,60.173Z" transform="translate(-3.873 -14.117)" fill="#fff"/><path d="M77.021,85.559a13.77,13.77,0,0,0,26.664-6.894c-1.9-7.363-22.069-30.691-22.069-30.691S75.116,78.2,77.021,85.559Z" transform="translate(-3.873 -14.117)" fill="#fff"/></svg>