<?xml version="1.0" encoding="utf-8"?>
<!-- Generator: Adobe Illustrator 21.0.0, SVG Export Plug-In . SVG Version: 6.00 Build 0)  -->
<!DOCTYPE svg PUBLIC "-//W3C//DTD SVG 1.1//EN" "http://www.w3.org/Graphics/SVG/1.1/DTD/svg11.dtd">
<svg version="1.1" id="Layer_1" xmlns="http://www.w3.org/2000/svg" xmlns:xlink="http://www.w3.org/1999/xlink" x="0px" y="0px"
	 viewBox="0 0 446.6 446.6" style="enable-background:new 0 0 446.6 446.6;" xml:space="preserve">
<style type="text/css">
	.st0{fill:#EFBD58;}
	.st1{fill:#1F4497;}
	.st2{fill:#FFFFFF;}
	.st3{font-family:'Helvetica';}
	.st4{font-size:18.9503px;}
	.st5{font-size:36.1934px;}
</style>
<g>
	<g>
		<circle class="st0" cx="223.3" cy="223.3" r="166.1"/>
	</g>
	<g>
		<circle class="st1" cx="223.3" cy="57.2" r="57.2"/>
		<text transform="matrix(1 0 0 1 188.023 60.7818)" class="st2 st3 st4">Urgency</text>
	</g>
	<g>
		
			<ellipse transform="matrix(0.7071 -0.7071 0.7071 0.7071 -43.8459 105.8534)" class="st1" cx="105.9" cy="105.9" rx="57.2" ry="57.2"/>
		<text transform="matrix(1 0 0 1 75.8321 109.4322)" class="st2 st3 st4">Anchor</text>
	</g>
	<g>
		<circle class="st1" cx="57.2" cy="223.3" r="57.2"/>
		<text transform="matrix(1 0 0 1 25.5998 226.8856)" class="st2 st3 st4">Sustain</text>
	</g>
	<g>
		
			<ellipse transform="matrix(0.7071 -0.7071 0.7071 0.7071 -209.9476 174.655)" class="st1" cx="105.9" cy="340.8" rx="57.2" ry="57.2"/>
		<text transform="matrix(1 0 0 1 66.3494 344.3352)" class="st2 st3 st4">Generate</text>
	</g>
	<g>
		<circle class="st1" cx="223.3" cy="389.4" r="57.2"/>
		<text transform="matrix(1 0 0 1 183.2861 392.985)" class="st2 st3 st4">Empower</text>
	</g>
	<g>
		
			<ellipse transform="matrix(0.7071 -0.7071 0.7071 0.7071 -141.1461 340.7567)" class="st1" cx="340.8" cy="340.8" rx="57.2" ry="57.2"/>
		<text transform="matrix(1 0 0 1 311.2693 344.3375)" class="st2 st3 st4">Diffuse</text>
	</g>
	<g>
		<circle class="st1" cx="389.4" cy="223.3" r="57.2"/>
		<text transform="matrix(1 0 0 1 363.5997 226.8811)" class="st2 st3 st4">Vision</text>
	</g>
	<g>
		
			<ellipse transform="matrix(0.7071 -0.7071 0.7071 0.7071 24.9556 271.9551)" class="st1" cx="340.8" cy="105.9" rx="57.2" ry="57.2"/>
		<text transform="matrix(1 0 0 1 303.8862 109.4309)" class="st2 st3 st4">Coalition</text>
	</g>
</g>
<text transform="matrix(1 0 0 1 139.7934 230.14)" class="st3 st5">Innovation</text>
</svg>
