<svg id="Layer_1" xmlns="http://www.w3.org/2000/svg" viewBox="0 0 446.6 446.6"><style>.st0{fill:#efbd58}.st1{fill:#1f4497}.st2{fill:#fff}.st3{font-family:&apos;Helvetica&apos;}.st4{font-size:18.9503px}.st5{font-size:36.1934px}</style><circle class="st0" cx="223.3" cy="223.3" r="166.1"/><circle class="st1" cx="223.3" cy="57.2" r="57.2"/><text transform="translate(188.023 60.782)" class="st2 st3 st4">Urgency</text><ellipse transform="rotate(-45.001 105.853 105.855)" class="st1" cx="105.9" cy="105.9" rx="57.2" ry="57.2"/><text transform="translate(75.832 109.432)" class="st2 st3 st4">Anchor</text><circle class="st1" cx="57.2" cy="223.3" r="57.2"/><text transform="translate(25.6 226.886)" class="st2 st3 st4">Sustain</text><ellipse transform="rotate(-45.001 105.85 340.76)" class="st1" cx="105.9" cy="340.8" rx="57.2" ry="57.2"/><text transform="translate(66.35 344.335)" class="st2 st3 st4">Generate</text><circle class="st1" cx="223.3" cy="389.4" r="57.2"/><text transform="translate(183.286 392.985)" class="st2 st3 st4">Empower</text><ellipse transform="rotate(-45.001 340.754 340.762)" class="st1" cx="340.8" cy="340.8" rx="57.2" ry="57.2"/><text transform="translate(311.27 344.337)" class="st2 st3 st4">Diffuse</text><circle class="st1" cx="389.4" cy="223.3" r="57.2"/><text transform="translate(363.6 226.881)" class="st2 st3 st4">Vision</text><ellipse transform="rotate(-45.001 340.757 105.858)" class="st1" cx="340.8" cy="105.9" rx="57.2" ry="57.2"/><text transform="translate(303.886 109.43)" class="st2 st3 st4">Coalition</text><text transform="translate(139.793 230.14)" class="st3 st5">Innovation</text></svg>