<svg class="fed-at-ibm" xmlns="http://www.w3.org/2000/svg" viewBox="0 0 322.55 57.9">
  <polygon points="76.62 46.07 57.04 46.07 57.04 42.57 73.11 42.56 76.62 46.07" fill="#95d13c"/>
  <path d="M216.77,51.82l3.52,3.51V6.06l-3.5-3.5ZM240.54,5a52.15,52.15,0,0,1,8.5.52,13.257,13.257,0,0,1,1.65.41,11.209,11.209,0,0,0-1.99-1.85,12.009,12.009,0,0,0-4.93-2.09,51.307,51.307,0,0,0-8.23-.49H217.85l3.5,3.5Zm19.41,28.36a14.151,14.151,0,0,1,2.6,8.46,17.285,17.285,0,0,1-1.63,7.29,14.763,14.763,0,0,1-4.55,5.75,14.319,14.319,0,0,1-7.11,2.68c-1.63.19-5.38.31-11.46.35H221.04a.716.716,0,0,1-.53-.22l-5-5a.716.716,0,0,1-.22-.53V.75a.749.749,0,0,1,.75-.75h19.5a52.15,52.15,0,0,1,8.5.52,13.465,13.465,0,0,1,5.55,2.34,14.18,14.18,0,0,1,3.74,4.19q.645.375,1.26.81a14.2,14.2,0,0,1,4.05,4.7,13.509,13.509,0,0,1,1.64,6.62,13.876,13.876,0,0,1-2.01,7.28,13.148,13.148,0,0,1-2.58,3.1c.01,0,.01.01.02.02A13.194,13.194,0,0,1,259.95,33.36Zm-1.17-14.18a12.066,12.066,0,0,0-1.45-5.89,12.582,12.582,0,0,0-3.63-4.21,12.009,12.009,0,0,0-4.93-2.09,51.307,51.307,0,0,0-8.23-.49H221.79V56.39H237.8c6.02-.04,9.71-.15,11.29-.34a12.932,12.932,0,0,0,6.39-2.39,13.326,13.326,0,0,0,4.08-5.18,15.763,15.763,0,0,0,1.49-6.66,12.741,12.741,0,0,0-2.32-7.59,11.87,11.87,0,0,0-4.74-3.85.734.734,0,0,1-.43-.61.743.743,0,0,1,.31-.68,11.482,11.482,0,0,0,3.12-3.41A12.347,12.347,0,0,0,258.78,19.18Z"/>
  <polygon points="319.99 5 305.38 5 301.88 1.5 316.49 1.5 317.55 2.56 319.99 5" fill="#426200"/>
  <polygon points="309.78 55.33 306.28 51.82 306.28 45.24 309.78 31.36 309.78 55.33" fill="#95d13c"/>
  <path d="M164.62,32.63a12.2,12.2,0,0,0-1.41-.08,5.042,5.042,0,0,0-3.08.82,2.756,2.756,0,0,0-1,2.38,2.934,2.934,0,0,0,.24,1.25,2.429,2.429,0,0,0,.62.85,2.483,2.483,0,0,0,.96.52,5.11,5.11,0,0,0,2.77-.01,8.046,8.046,0,0,0,1.42-.55,7.6,7.6,0,0,0,1.27-.81,11.356,11.356,0,0,0,.9-.77V33.18c-.16-.04-.32-.09-.48-.13-.33-.09-.67-.17-1.03-.24S165.05,32.68,164.62,32.63Zm12.3,13.58v3.05a.689.689,0,0,1-.42.63c-.7.27-1.52.55-2.45.82s-1.95.51-3.05.72-2.28.37-3.51.49-2.5.18-3.78.18a25.289,25.289,0,0,1-5.42-.57,21.272,21.272,0,0,1-4.93-1.7,18.5,18.5,0,0,1-4.2-2.82,17.635,17.635,0,0,1-3.31-3.95,19.446,19.446,0,0,1-2.18-5.04,22.972,22.972,0,0,1-.77-6.09,25.216,25.216,0,0,1,1.45-8.73,19.3,19.3,0,0,1,4.16-6.75,18.527,18.527,0,0,1,6.51-4.31,22.674,22.674,0,0,1,8.46-1.52,23.053,23.053,0,0,1,7.9,1.32,18.418,18.418,0,0,1,6.25,3.75,17.219,17.219,0,0,1,4.11,5.84,18.839,18.839,0,0,1,1.46,7.51,19.261,19.261,0,0,1-.78,5.68,13.592,13.592,0,0,1-2.17,4.36,9.846,9.846,0,0,1-3.35,2.81,9.157,9.157,0,0,1-4.21.99,6.715,6.715,0,0,1-1.94-.25,4.845,4.845,0,0,1-1.48-.71,4.1,4.1,0,0,1-1.05-1.11c-.08-.13-.16-.26-.23-.4q-.24.225-.51.45a8.354,8.354,0,0,1-1.57,1.03,8.65,8.65,0,0,1-1.95.72,9.548,9.548,0,0,1-2.33.27,8.707,8.707,0,0,1-2.98-.49,6.885,6.885,0,0,1-2.39-1.44,6.8,6.8,0,0,1-1.57-2.26,8.036,8.036,0,0,1,.08-6.09,6.682,6.682,0,0,1,1.79-2.38,8.018,8.018,0,0,1,2.72-1.48,11.018,11.018,0,0,1,3.43-.51,13.263,13.263,0,0,1,3.09.31c.52.13,1.03.27,1.51.42v-.35a7.517,7.517,0,0,0-.25-1.99,3.285,3.285,0,0,0-.75-1.39,3.48,3.48,0,0,0-1.4-.89,6.978,6.978,0,0,0-2.33-.33,14.34,14.34,0,0,0-2.93.29,19.629,19.629,0,0,0-2.76.82.677.677,0,0,1-.91-.63V21.55a.675.675,0,0,1,.38-.6,12.245,12.245,0,0,1,1.37-.54,15.131,15.131,0,0,1,1.61-.43,16.364,16.364,0,0,1,1.79-.27c.63-.06,1.26-.09,1.88-.09a11.986,11.986,0,0,1,3.98.6,7.986,7.986,0,0,1,2.89,1.73,7.121,7.121,0,0,1,1.73,2.73,10.37,10.37,0,0,1,.54,3.43v8.84a2.648,2.648,0,0,0,.25,1.36c.14.2.52.25.82.25a3.014,3.014,0,0,0,1.88-.66,6.1,6.1,0,0,0,1.6-1.93,11.49,11.49,0,0,0,1.1-3,16.179,16.179,0,0,0,.4-3.69,15.449,15.449,0,0,0-1.16-6.18,12.766,12.766,0,0,0-3.16-4.45,13.718,13.718,0,0,0-4.7-2.71,18.049,18.049,0,0,0-5.81-.93,18.707,18.707,0,0,0-4.99.63,14.9,14.9,0,0,0-3.92,1.74,12.029,12.029,0,0,0-2.94,2.65,15,15,0,0,0-2.03,3.41,18.292,18.292,0,0,0-1.2,3.95,23.8,23.8,0,0,0-.39,4.33,19.843,19.843,0,0,0,1.02,6.51,13.255,13.255,0,0,0,8,8.35,19.159,19.159,0,0,0,7.08,1.2,33.285,33.285,0,0,0,3.68-.19,32.436,32.436,0,0,0,3.28-.5c1.02-.2,1.96-.44,2.8-.69a22.956,22.956,0,0,0,2.22-.8.691.691,0,0,1,.64.05A.68.68,0,0,1,176.92,46.21Z" fill="#231f20"/>
  <path d="M221.79,56.39V6.5h18.75a51.307,51.307,0,0,1,8.23.49,12.009,12.009,0,0,1,4.93,2.09,12.582,12.582,0,0,1,3.63,4.21,12.066,12.066,0,0,1,1.45,5.89,12.347,12.347,0,0,1-1.79,6.5,11.482,11.482,0,0,1-3.12,3.41.743.743,0,0,0-.31.68.734.734,0,0,0,.43.61,11.87,11.87,0,0,1,4.74,3.85,12.741,12.741,0,0,1,2.32,7.59,15.763,15.763,0,0,1-1.49,6.66,13.326,13.326,0,0,1-4.08,5.18,12.932,12.932,0,0,1-6.39,2.39c-1.58.19-5.27.3-11.29.34Zm26.09-32.1a5.143,5.143,0,0,0,1.31-3.69,5.334,5.334,0,0,0-1.13-3.56,4.88,4.88,0,0,0-3.36-1.65c-.92-.11-3.52-.17-7.95-.17h-4.37a.755.755,0,0,0-.75.75v9.42a.749.749,0,0,0,.75.75h5.13c3.66,0,5.87-.05,6.75-.16A5.74,5.74,0,0,0,247.88,24.29Zm3.01,17.06a6.469,6.469,0,0,0-.97-3.63,5.4,5.4,0,0,0-2.79-2.16c-1.24-.46-4-.7-8.2-.7h-6.55a.755.755,0,0,0-.75.75V46.82a.749.749,0,0,0,.75.75h7.65a40.775,40.775,0,0,0,6.34-.29,5.5,5.5,0,0,0,3.27-1.89A6.137,6.137,0,0,0,250.89,41.35Z" fill="#fff"/>
  <polygon points="5 6.07 5 55.34 1.5 51.84 1.5 2.57 5 6.07" fill="#426200"/>
  <polygon points="300.46 2.21 304.23 5.98 296.97 33.6 294.57 24.59 300.46 2.21" fill="#426200"/>
  <path d="M244.51,16.88a3.51,3.51,0,0,1,2.4,1.11,3.984,3.984,0,0,1,.78,2.61,3.742,3.742,0,0,1-.9,2.66,4.275,4.275,0,0,1-2.72,1.23c-.55.07-2.14.15-6.56.15h-4.38v-3.5c3.29,0,5.3-.06,6.13-.16a5.74,5.74,0,0,0,3.62-1.69,4.65,4.65,0,0,0,1.17-2.45A3.922,3.922,0,0,1,244.51,16.88Z" fill="#95d13c"/>
  <polygon points="84.6 2.56 88.1 6.06 88.1 55.33 84.6 51.83 84.6 2.56" fill="#426200"/>
  <polygon points="17.23 21.56 30.06 21.56 33.56 25.05 17.23 25.05 17.23 21.56" fill="#95d13c"/>
  <polygon points="208.08 5 198.23 5 194.73 1.5 204.58 1.5 208.08 5" fill="#426200"/>
  <rect x="198.67" y="6.5" width="10.47" height="49.89" fill="#fff"/>
  <polygon points="271.34 55.33 267.84 51.84 267.84 2.56 271.34 6.06 271.34 55.33" fill="#426200"/>
  <path d="M197.17,55.33V6.06l-3.5-3.5-.03,49.24ZM209.14,6.5H198.67V56.39h10.47ZM208.08,5l-3.5-3.5h-9.85l3.5,3.5ZM197.39,57.67l-5-5a.716.716,0,0,1-.22-.53V.75a.755.755,0,0,1,.75-.75h11.97a.756.756,0,0,1,.53.22l5,5a.732.732,0,0,1,.22.53V57.14a.743.743,0,0,1-.75.75H197.92A.732.732,0,0,1,197.39,57.67Z" fill="#231f20"/>
  <path d="M77.68,15.36H56.29a.743.743,0,0,0-.75.75v8.95a.749.749,0,0,0,.75.75H77.68v8.82H56.29a.743.743,0,0,0-.75.75V46.82a.743.743,0,0,0,.75.75H77.68v8.82H46.31V6.5H77.68Z" fill="#fff"/>
  <path d="M244.64,40.39a5.869,5.869,0,0,0,1.22-3.62,6.17,6.17,0,0,1,.74.19,4.071,4.071,0,0,1,2.07,1.57,5.112,5.112,0,0,1,.72,2.82,4.712,4.712,0,0,1-.9,3.08,3.97,3.97,0,0,1-2.43,1.38,36.026,36.026,0,0,1-6.03.26h-6.9v-3.5h1.9a40.775,40.775,0,0,0,6.34-.29A5.5,5.5,0,0,0,244.64,40.39Z" fill="#95d13c"/>
  <path d="M84.6,51.83l3.5,3.5V6.06l-3.5-3.5ZM112.97,1.01a18.317,18.317,0,0,1,8.22,5.03,22.6,22.6,0,0,1,1.94,2.4,18.813,18.813,0,0,1,3.06,2.6,23.34,23.34,0,0,1,5.1,8.64,38.164,38.164,0,0,1,1.72,12.24A34.329,34.329,0,0,1,131.39,43a23.6,23.6,0,0,1-5.72,9.41,19.322,19.322,0,0,1-7.69,4.35,32,32,0,0,1-9.37,1.13H88.85a.716.716,0,0,1-.53-.22l-5-5a.716.716,0,0,1-.22-.53V.75A.749.749,0,0,1,83.85,0h19.23A37.562,37.562,0,0,1,112.97,1.01Zm4.57,6.44a36.079,36.079,0,0,0-9.46-.95H89.6V56.39h19.01a30.6,30.6,0,0,0,8.91-1.06,17.792,17.792,0,0,0,7.1-4,22.214,22.214,0,0,0,5.36-8.82,33.018,33.018,0,0,0,1.53-10.59,36.636,36.636,0,0,0-1.64-11.76c-.26-.76-.55-1.49-.87-2.2-.28-.61-.59-1.19-.9-1.76-.05-.08-.09-.16-.13-.24a20.882,20.882,0,0,0-2.57-3.53c-.1-.12-.19-.25-.3-.36a16.85,16.85,0,0,0-4.09-3.16l-.02-.02c-.34-.18-.67-.35-1.02-.51-.04-.02-.07-.04-.11-.06-.32-.14-.64-.28-.97-.4-.06-.03-.12-.05-.19-.08C118.32,7.7,117.94,7.57,117.54,7.45ZM108.08,5a37.562,37.562,0,0,1,9.89,1.01c.56.17,1.11.37,1.65.58a16.953,16.953,0,0,0-7.08-4.14,36.079,36.079,0,0,0-9.46-.95H85.66L89.16,5Z" fill="#231f20"/>
  <polygon points="42.37 1.5 73.12 1.5 76.62 5 45.88 5 42.37 1.5" fill="#426200"/>
  <path d="M108.61,56.39H89.6V6.5h18.48a36.079,36.079,0,0,1,9.46.95c.4.12.78.25,1.16.39.07.03.13.05.19.08.33.12.65.26.97.4.04.02.07.04.11.06.35.16.68.33,1.02.51l.02.02a16.85,16.85,0,0,1,4.09,3.16c.11.11.2.24.3.36a20.882,20.882,0,0,1,2.57,3.53c.04.08.08.16.13.24.31.57.62,1.15.9,1.76.32.71.61,1.44.87,2.2a36.636,36.636,0,0,1,1.64,11.76,33.018,33.018,0,0,1-1.53,10.59,22.214,22.214,0,0,1-5.36,8.82,17.792,17.792,0,0,1-7.1,4A30.6,30.6,0,0,1,108.61,56.39Zm-2.89-41.03c-.45,0-.93-.01-1.42-.01h-3.48a.755.755,0,0,0-.75.75V46.82a.755.755,0,0,0,.75.75h6.45a27.515,27.515,0,0,0,5.96-.46,9.214,9.214,0,0,0,3.93-2,10.382,10.382,0,0,0,2.54-4.66,32.282,32.282,0,0,0,1-8.97,29.5,29.5,0,0,0-1-8.72,11.125,11.125,0,0,0-2.77-4.68,9.844,9.844,0,0,0-.78-.64c-.13-.08-.25-.17-.38-.25a3.067,3.067,0,0,0-.39-.23,8.13,8.13,0,0,0-1.22-.6,10.157,10.157,0,0,0-1.72-.54c-.08-.02-.19-.03-.28-.05-.18-.03-.38-.07-.6-.1s-.44-.05-.69-.08h-.04c-.24-.03-.49-.05-.76-.07a.34.34,0,0,1-.1-.01c-.26-.02-.52-.03-.81-.05-.07,0-.14-.01-.21-.01-.26-.01-.53-.02-.81-.04-.12,0-.26,0-.39-.01-.25,0-.49-.01-.76-.02-.21,0-.45-.01-.68-.01C106.12,15.37,105.93,15.36,105.72,15.36Z" fill="#fff"/>
  <polygon points="197.17 6.06 197.17 55.33 193.64 51.8 193.67 2.56 197.17 6.06" fill="#426200"/>
  <path d="M107.87,40.65A7.587,7.587,0,0,0,111.15,39a9.012,9.012,0,0,0,2.11-3.98,30.747,30.747,0,0,0,.94-8.54,27.686,27.686,0,0,0-.93-8.24c-.08-.25-.17-.47-.26-.7-.29-.09-.58-.18-.89-.25a43.779,43.779,0,0,0-7.82-.44h-2.73V41.07h.7A25.706,25.706,0,0,0,107.87,40.65Zm8.28-23.21a9.844,9.844,0,0,1,.78.64,11.125,11.125,0,0,1,2.77,4.68,29.5,29.5,0,0,1,1,8.72,32.282,32.282,0,0,1-1,8.97,10.382,10.382,0,0,1-2.54,4.66,9.214,9.214,0,0,1-3.93,2,27.515,27.515,0,0,1-5.96.46h-6.45a.755.755,0,0,1-.75-.75V16.1a.755.755,0,0,1,.75-.75h3.48c.49,0,.97.01,1.42.01.21,0,.4.01.59.01.23,0,.47.01.68.01.27.01.51.02.76.02.13.01.27.01.39.01.28.02.55.03.81.04.07,0,.14.01.21.01.29.02.55.03.81.05a.34.34,0,0,0,.1.01c.27.02.52.04.76.07h.04c.25.03.47.05.69.08s.42.07.6.1c.09.02.2.03.28.05a10.157,10.157,0,0,1,1.72.54,8.13,8.13,0,0,1,1.22.6,3.067,3.067,0,0,1,.39.23C115.9,17.27,116.02,17.36,116.15,17.44Zm-3.28,28.21a7.491,7.491,0,0,0,3.28-1.66,8.9,8.9,0,0,0,2.11-3.98,30.618,30.618,0,0,0,.94-8.53,27.761,27.761,0,0,0-.93-8.25,9.642,9.642,0,0,0-2.37-4.06,6.494,6.494,0,0,0-1.02-.77,31.873,31.873,0,0,1,.82,8.08,32.183,32.183,0,0,1-1,8.97,10.382,10.382,0,0,1-2.54,4.66,9.1,9.1,0,0,1-3.93,2,26.879,26.879,0,0,1-5.96.46h-.7v3.5h5.7A25.706,25.706,0,0,0,112.87,45.65Z" fill="#231f20"/>
  <path d="M72.68,20.81H57.04V24.3H76.61l-3.49-3.49Zm.43,21.75-16.07.01v3.5H76.62ZM56.29,15.36H77.68V6.5H46.31V56.39H77.68V47.57H56.29a.743.743,0,0,1-.75-.75V35.38a.743.743,0,0,1,.75-.75H77.68V25.81H56.29a.749.749,0,0,1-.75-.75V16.11A.743.743,0,0,1,56.29,15.36ZM73.12,1.5H42.37L45.88,5H76.62ZM44.81,6.06l-3.5-3.5V51.83l3.5,3.5Zm.22,51.61-5-5a.756.756,0,0,1-.22-.53V.75A.749.749,0,0,1,40.56,0H73.43a.764.764,0,0,1,.54.23l4.98,4.98a.764.764,0,0,1,.23.54V16.1a.749.749,0,0,1-.75.75H57.04V19.3H73.43a.774.774,0,0,1,.54.24l4.97,4.97a.734.734,0,0,1,.24.54V35.38a.755.755,0,0,1-.75.75H57.04v4.94H73.43a.764.764,0,0,1,.54.23l4.98,4.98a.764.764,0,0,1,.23.54V57.14a.755.755,0,0,1-.75.75H45.56A.749.749,0,0,1,45.03,57.67Z" fill="#231f20"/>
  <path d="M236.75,16.72h-3.62v2.92c3.95,0,5.42-.08,5.94-.15a4.275,4.275,0,0,0,2.72-1.23,3.16,3.16,0,0,0,.75-1.48C241.35,16.74,239.52,16.72,236.75,16.72Zm12.44,3.88a5.143,5.143,0,0,1-1.31,3.69,5.74,5.74,0,0,1-3.62,1.69c-.88.11-3.09.16-6.75.16h-5.13a.749.749,0,0,1-.75-.75V15.97a.755.755,0,0,1,.75-.75h4.37c4.43,0,7.03.06,7.95.17a4.88,4.88,0,0,1,3.36,1.65A5.334,5.334,0,0,1,249.19,20.6Zm-11.68,4.04c4.42,0,6.01-.08,6.56-.15a4.275,4.275,0,0,0,2.72-1.23,3.742,3.742,0,0,0,.9-2.66,3.984,3.984,0,0,0-.78-2.61,3.51,3.51,0,0,0-2.4-1.11,3.922,3.922,0,0,0-.46-.04,4.65,4.65,0,0,1-1.17,2.45,5.74,5.74,0,0,1-3.62,1.69c-.83.1-2.84.16-6.13.16v3.5Z"/>
  <path d="M249.04,5.52a52.15,52.15,0,0,0-8.5-.52H221.35l-3.5-3.5h17.69a51.307,51.307,0,0,1,8.23.49,12.009,12.009,0,0,1,4.93,2.09,11.209,11.209,0,0,1,1.99,1.85A13.257,13.257,0,0,0,249.04,5.52Z" fill="#426200"/>
  <polygon points="286.97 5 272.4 5 268.9 1.5 283.48 1.51 286.97 5" fill="#426200"/>
  <polygon points="76.61 24.3 57.04 24.3 57.04 20.81 72.68 20.81 73.12 20.81 76.61 24.3" fill="#95d13c"/>
  <path d="M305.64,6.5h15.41V56.39h-9.77V25.32a.755.755,0,0,0-.66-.75.776.776,0,0,0-.82.57l-7.88,31.25h-9.99l-7.85-31.23a.749.749,0,0,0-.82-.56.764.764,0,0,0-.66.75V56.39h-9.76V6.5h15.37l8.04,30.23a.741.741,0,0,0,.72.55.759.759,0,0,0,.73-.56Z" fill="#fff"/>
  <path d="M6.5,56.4V6.51H34.62v8.86H16.48a.743.743,0,0,0-.75.75v9.69a.749.749,0,0,0,.75.75H34.62v8.85H16.48a.749.749,0,0,0-.75.75V56.4Z" fill="#fff"/>
  <path d="M267.84,51.84l3.5,3.49V6.06l-3.5-3.5ZM286.97,5l-3.49-3.49L268.9,1.5,272.4,5Zm2.99,49.69L284.1,31.41v8.74l2.83,11.24.09.37ZM304.23,5.98l-3.77-3.77-5.89,22.38,2.4,9.01Zm2.05,45.84,3.5,3.51V31.36l-3.5,13.88ZM301.88,1.5l3.5,3.5h14.61l-2.44-2.44L316.49,1.5Zm2.9,50.64v-.95l-1.55,6.14a.739.739,0,0,1-.72.56H291.34a.769.769,0,0,1-.52-.22h-.01l-5-5h.01a.787.787,0,0,1-.2-.34l-1.52-6.02V57.14a.743.743,0,0,1-.75.75H272.09a.716.716,0,0,1-.53-.22l-5-5a.716.716,0,0,1-.22-.53V.75a.749.749,0,0,1,.75-.75h16.69a.741.741,0,0,1,.53.23l5,4.99v.01a.793.793,0,0,1,.2.33l4.28,16.1L299.34.56a.75.75,0,0,1,.73-.56H316.8a.794.794,0,0,1,.53.22l5,5a.774.774,0,0,1,.22.53V57.14a.749.749,0,0,1-.75.75H310.53a.732.732,0,0,1-.53-.22l-5-5A.756.756,0,0,1,304.78,52.14ZM321.05,6.5H305.64L297.7,36.72a.759.759,0,0,1-.73.56.741.741,0,0,1-.72-.55L288.21,6.5H272.84V56.39h9.76V25.35a.764.764,0,0,1,.66-.75.749.749,0,0,1,.82.56l7.85,31.23h9.99l7.88-31.25a.776.776,0,0,1,.82-.57.755.755,0,0,1,.66.75V56.39h9.77Z" fill="#231f20"/>
  <polygon points="41.31 2.56 44.81 6.06 44.81 55.33 41.31 51.83 41.31 2.56" fill="#426200"/>
  <polygon points="289.96 54.69 287.02 51.76 286.93 51.39 284.1 40.15 284.1 31.41 289.96 54.69" fill="#95d13c"/>
  <path d="M34.62,26.56H16.48a.749.749,0,0,1-.75-.75V16.12a.743.743,0,0,1,.75-.75H34.62V6.51H6.5V56.4h9.23V36.16a.749.749,0,0,1,.75-.75H34.62Zm-1.06-1.51-3.5-3.49H17.23v3.49ZM31.12,2.57,30.06,1.51H2.56l3.5,3.5h27.5ZM30.9.23l5,5a.716.716,0,0,1,.22.53V16.11a.743.743,0,0,1-.75.75H17.23v3.19H30.37a.764.764,0,0,1,.54.23l4.98,4.99a.764.764,0,0,1,.23.54V36.16a.749.749,0,0,1-.75.75H17.23V57.15a.755.755,0,0,1-.75.75H5.75a.749.749,0,0,1-.53-.22l-5-5A.756.756,0,0,1,0,52.15V.76A.749.749,0,0,1,.75.01H30.37A.756.756,0,0,1,30.9.23ZM5,6.07,1.5,2.57V51.84L5,55.34Z" fill="#231f20"/>
  <polygon points="216.79 2.56 220.29 6.06 220.29 55.33 216.77 51.82 216.79 2.56" fill="#426200"/>
  <path d="M235.03,41.07a36.026,36.026,0,0,0,6.03-.26,3.97,3.97,0,0,0,2.43-1.38,4.6,4.6,0,0,0,.89-2.86c-1.18-.12-2.91-.21-5.45-.21h-5.8v4.71Zm5,5a36.026,36.026,0,0,0,6.03-.26,3.97,3.97,0,0,0,2.43-1.38,4.712,4.712,0,0,0,.9-3.08,5.112,5.112,0,0,0-.72-2.82,4.071,4.071,0,0,0-2.07-1.57,6.17,6.17,0,0,0-.74-.19,5.869,5.869,0,0,1-1.22,3.62,5.5,5.5,0,0,1-3.27,1.89,40.775,40.775,0,0,1-6.34.29h-1.9v3.5Zm9.89-8.35a6.469,6.469,0,0,1,.97,3.63,6.137,6.137,0,0,1-1.25,4.04,5.5,5.5,0,0,1-3.27,1.89,40.775,40.775,0,0,1-6.34.29h-7.65a.749.749,0,0,1-.75-.75V35.61a.755.755,0,0,1,.75-.75h6.55c4.2,0,6.96.24,8.2.7A5.4,5.4,0,0,1,249.92,37.72Z"/>
  <polygon points="31.12 2.57 33.56 5.01 6.06 5.01 2.56 1.51 30.06 1.51 31.12 2.57" fill="#426200"/>
  <path d="M112.54,2.45a16.953,16.953,0,0,1,7.08,4.14c-.54-.21-1.09-.41-1.65-.58A37.562,37.562,0,0,0,108.08,5H89.16l-3.5-3.5h17.42A36.079,36.079,0,0,1,112.54,2.45Z" fill="#426200"/>
  <path d="M115.9,19.17a9.642,9.642,0,0,1,2.37,4.06,27.761,27.761,0,0,1,.93,8.25,30.618,30.618,0,0,1-.94,8.53,8.9,8.9,0,0,1-2.11,3.98,7.491,7.491,0,0,1-3.28,1.66,25.706,25.706,0,0,1-5.6.42h-5.7v-3.5h.7a26.879,26.879,0,0,0,5.96-.46,9.1,9.1,0,0,0,3.93-2,10.382,10.382,0,0,0,2.54-4.66,32.183,32.183,0,0,0,1-8.97,31.873,31.873,0,0,0-.82-8.08A6.494,6.494,0,0,1,115.9,19.17Z" fill="#95d13c"/>
</svg>
