<svg id="Layer_1" xmlns="http://www.w3.org/2000/svg" viewBox="0 0 581 113.1"><style>.st0{font-family:&apos;Helvetica&apos;}.st1{font-size:12px}.st2{fill:#21409a}.st3{fill:#efbe59}</style><text transform="translate(0 100.656)" class="st0 st1">Normal Work</text><path class="st2" d="M245.3 62.6H260v21h-14.7zm-17.5 0h13.5v21h-13.5zm-30.1 0H218v21h-20.3zm-9.3 0h7.9v21h-7.9zm31.3 0h4.9v21h-4.9zM0 62.6h185.3v21H0zm278.3 0h7.7v21h-7.7zm-5.2 0h4.3v21h-4.3zm20.9 0h8.3v21H294zm-6.3 0h5v21h-5zm42.8 0h12.1v21h-12.1zm-14.1 0h10.1v21h-10.1z"/><text transform="translate(229 100.656)" class="st0 st1">Anomalies</text><text transform="translate(471.6 13.656)" class="st0 st1">Candidate Paradigm</text><text transform="translate(346.88 58.99)" class="st0 st1">Paradigm Shift</text><path class="st3" d="M306.5 46.9h9.9V35.7c-3.4.4-6.7.8-9.9 1.2v10zm-10.3 0h6.1v-9.4c-2.1.3-4.1.6-6.1.9v8.5zM286 40.2V47h8.1v-8.2c-2.9.4-5.6.9-8.1 1.4zm-17.9 6.7h14.1v-6c-8.8 1.9-14.1 3.9-14.1 6zm177.4-21c-5.1 0-39.4 1.8-76.5 4.8v16.2h212v-21H445.5zm-106 7.4V47h5.1V32.8c-1.7.1-3.4.3-5.1.5zm14.8 13.6h9.2V31.1c-3.1.3-6.1.5-9.2.8v15zm-7.7-14.3v14.3h7.1v-15c-2.3.3-4.7.5-7.1.7zm-20.1 14.3h10.1V33.5c-3.4.3-6.8.7-10.1 1v12.4z"/><path class="st2" d="M356.7 62.6V83c1.2-.1 2.5-.2 3.8-.4v-20h-3.8zm-10.1 0v21c1.6 0 4.8-.2 9-.5V62.6h-9zm24.2 0v18.9c2-.2 4.1-.5 6.2-.7V62.6h-6.2zm47.2 0v11.6c2.7-.6 5.4-1.2 7.8-1.8v-9.8H418zm-3.7 0v12.3c.7-.1 1.3-.3 2-.4V62.6h-2zm-7.8 0v13.8c1.3-.2 2.7-.5 4-.7V62.6h-4zm-25.8 0v17.7c2.1-.3 4.3-.6 6.5-.9V62.6h-6.5zm16.6 0v15.3c.8-.1 1.7-.3 2.5-.4V62.6h-2.5zm3.2 0v14.8c.8-.1 1.7-.3 2.5-.4V62.6h-2.5zm-38 0v19.8c1.5-.2 3.2-.3 4.8-.5V62.6h-4.8zm26.2 0v16.6c2.5-.3 4.9-.7 7.4-1.1V62.6h-7.4zm56.8 0h-2.7v3.6c1.8-1.2 2.7-2.4 2.7-3.6zm-6.8 0v5.7c1.1-.5 2.1-1 3-1.4v-4.3h-3zm-8.2 0v8.5c.9-.2 1.7-.5 2.5-.8v-7.8h-2.5zm-4.3 0v9.7c1.3-.3 2.6-.7 3.8-1v-8.7h-3.8z"/></svg>