<?xml version="1.0" encoding="utf-8"?>
<!-- Generator: Adobe Illustrator 21.0.0, SVG Export Plug-In . SVG Version: 6.00 Build 0)  -->
<!DOCTYPE svg PUBLIC "-//W3C//DTD SVG 1.1//EN" "http://www.w3.org/Graphics/SVG/1.1/DTD/svg11.dtd">
<svg version="1.1" id="Layer_1" xmlns="http://www.w3.org/2000/svg" xmlns:xlink="http://www.w3.org/1999/xlink" x="0px" y="0px"
	 viewBox="0 0 581 113.1" style="enable-background:new 0 0 581 113.1;" xml:space="preserve">
<style type="text/css">
	.st0{font-family:'Helvetica';}
	.st1{font-size:12px;}
	.st2{fill:#21409A;}
	.st3{fill:#EFBE59;}
</style>
<text transform="matrix(1 0 0 1 1.220703e-04 100.6557)" class="st0 st1">Normal Work</text>
<rect x="245.3" y="62.6" class="st2" width="14.7" height="21"/>
<rect x="227.8" y="62.6" class="st2" width="13.5" height="21"/>
<rect x="197.7" y="62.6" class="st2" width="20.3" height="21"/>
<rect x="188.4" y="62.6" class="st2" width="7.9" height="21"/>
<rect x="219.7" y="62.6" class="st2" width="4.9" height="21"/>
<rect y="62.6" class="st2" width="185.3" height="21"/>
<rect x="278.3" y="62.6" class="st2" width="7.7" height="21"/>
<rect x="273.1" y="62.6" class="st2" width="4.3" height="21"/>
<rect x="294" y="62.6" class="st2" width="8.3" height="21"/>
<rect x="287.7" y="62.6" class="st2" width="5" height="21"/>
<rect x="330.5" y="62.6" class="st2" width="12.1" height="21"/>
<rect x="316.4" y="62.6" class="st2" width="10.1" height="21"/>
<text transform="matrix(1 0 0 1 229.0001 100.6557)" class="st0 st1">Anomalies</text>
<text transform="matrix(1 0 0 1 471.5997 13.6557)" class="st0 st1">Candidate Paradigm</text>
<text transform="matrix(1 0 0 1 346.8804 58.9891)" class="st0 st1"> Paradigm Shift</text>
<g>
	<path class="st3" d="M306.5,46.9h9.9V35.7c-3.4,0.4-6.7,0.8-9.9,1.2V46.9z"/>
	<path class="st3" d="M296.2,46.9h6.1v-9.4c-2.1,0.3-4.1,0.6-6.1,0.9V46.9z"/>
	<path class="st3" d="M286,40.2v6.8h8.1v-8.2C291.2,39.2,288.5,39.7,286,40.2z"/>
	<path class="st3" d="M268.1,46.9h14.1v-6C273.4,42.8,268.1,44.8,268.1,46.9z"/>
	<path class="st3" d="M445.5,25.9c-5.1,0-39.4,1.8-76.5,4.8v16.2h212v-21H445.5z"/>
	<path class="st3" d="M339.5,33.3v13.7h5.1V32.8C342.9,32.9,341.2,33.1,339.5,33.3z"/>
	<path class="st3" d="M354.3,46.9h9.2V31.1c-3.1,0.3-6.1,0.5-9.2,0.8V46.9z"/>
	<path class="st3" d="M346.6,32.6v14.3h7.1v-15C351.4,32.2,349,32.4,346.6,32.6z"/>
	<path class="st3" d="M326.5,46.9h10.1V33.5c-3.4,0.3-6.8,0.7-10.1,1V46.9z"/>
</g>
<g>
	<path class="st2" d="M356.7,62.6v20.4c1.2-0.1,2.5-0.2,3.8-0.4v-20H356.7z"/>
	<path class="st2" d="M346.6,62.6v21c1.6,0,4.8-0.2,9-0.5V62.6H346.6z"/>
	<path class="st2" d="M370.8,62.6v18.9c2-0.2,4.1-0.5,6.2-0.7V62.6H370.8z"/>
	<path class="st2" d="M418,62.6v11.6c2.7-0.6,5.4-1.2,7.8-1.8v-9.8H418z"/>
	<path class="st2" d="M414.3,62.6v12.3c0.7-0.1,1.3-0.3,2-0.4V62.6H414.3z"/>
	<path class="st2" d="M406.5,62.6v13.8c1.3-0.2,2.7-0.5,4-0.7V62.6H406.5z"/>
	<path class="st2" d="M380.7,62.6v17.7c2.1-0.3,4.3-0.6,6.5-0.9V62.6H380.7z"/>
	<path class="st2" d="M397.3,62.6v15.3c0.8-0.1,1.7-0.3,2.5-0.4V62.6H397.3z"/>
	<path class="st2" d="M400.5,62.6v14.8c0.8-0.1,1.7-0.3,2.5-0.4V62.6H400.5z"/>
	<path class="st2" d="M362.5,62.6v19.8c1.5-0.2,3.2-0.3,4.8-0.5V62.6H362.5z"/>
	<path class="st2" d="M388.7,62.6v16.6c2.5-0.3,4.9-0.7,7.4-1.1V62.6H388.7z"/>
	<path class="st2" d="M445.5,62.6h-2.7v3.6C444.6,65,445.5,63.8,445.5,62.6z"/>
	<path class="st2" d="M438.7,62.6v5.7c1.1-0.5,2.1-1,3-1.4v-4.3H438.7z"/>
	<path class="st2" d="M430.5,62.6v8.5c0.9-0.2,1.7-0.5,2.5-0.8v-7.8H430.5z"/>
	<path class="st2" d="M426.2,62.6v9.7c1.3-0.3,2.6-0.7,3.8-1v-8.7H426.2z"/>
</g>
</svg>
