<svg xmlns="http://www.w3.org/2000/svg" viewBox="0 0 516.582 495.196"><title>pie-chart</title><path d="M174.6,25.124V36.938c0,2.705.993,4.058,3.478,4.058s3.479-1.353,3.479-4.058V25.124h4.085V36.5c0,5.687-2.043,8.226-7.563,8.226s-7.563-2.539-7.563-8.226V25.124Z" transform="translate(-17.288 -23.716)" fill="#231f20"/><path d="M189.563,44.391V29.9h4.086v2.457h.165a3.952,3.952,0,0,1,4.03-2.788c2.953,0,4.527,2.1,4.527,5.741v9.082h-4.086v-8.75c0-1.85-.524-2.761-2.015-2.761-1.325,0-2.622.69-2.622,2.125v9.385Z" transform="translate(-17.288 -23.716)" fill="#231f20"/><path d="M205.684,26.339v-.607c0-1.159.718-2.015,2.374-2.015s2.374.856,2.374,2.015v.607c0,1.159-.718,2.015-2.374,2.015S205.684,27.5,205.684,26.339Zm.331,3.561H210.1V44.391h-4.086Z" transform="translate(-17.288 -23.716)" fill="#231f20"/><path d="M218.988,44.391c-2.815,0-4.306-1.463-4.306-4.223V33.074H212.64V29.9h1.021c1.1,0,1.436-.552,1.436-1.546V25.98h3.671V29.9h2.871v3.174h-2.871v8.143h2.65v3.174Z" transform="translate(-17.288 -23.716)" fill="#231f20"/><path d="M223.461,37.131c0-4.582,2.429-7.563,6.79-7.563,4.8,0,6.735,3.478,6.735,7.4V38.18h-9.3V38.4a2.847,2.847,0,0,0,3.2,3.119,4.592,4.592,0,0,0,3.561-1.739l2.043,2.54a7.854,7.854,0,0,1-6.072,2.4C225.973,44.722,223.461,41.769,223.461,37.131Zm4.223-1.573v.221h5.079V35.53c0-1.767-.8-2.953-2.429-2.953S227.684,33.764,227.684,35.558Z" transform="translate(-17.288 -23.716)" fill="#231f20"/><path d="M248.772,41.962h-.138a3.957,3.957,0,0,1-3.893,2.76c-3.671,0-5.576-2.677-5.576-7.591s1.905-7.563,5.576-7.563a3.925,3.925,0,0,1,3.893,2.76h.138V23.965h4.085V44.391h-4.085Zm0-2.677V35.006c0-1.325-1.132-2.125-2.678-2.125a2.723,2.723,0,0,0-2.678,3.009V38.4a2.723,2.723,0,0,0,2.678,3.009C247.641,41.41,248.772,40.609,248.772,39.285Z" transform="translate(-17.288 -23.716)" fill="#231f20"/><path d="M262.326,41.6l2.761-2.788a6.276,6.276,0,0,0,4.83,2.208c2.043,0,3.036-.911,3.036-2.318,0-1.049-.441-1.822-2.235-2.07l-1.9-.249c-4.059-.524-5.907-2.512-5.907-5.742,0-3.45,2.705-5.852,7.231-5.852a8.579,8.579,0,0,1,6.681,2.705l-2.788,2.815a5.038,5.038,0,0,0-4.141-1.822c-1.877,0-2.788.718-2.788,1.877,0,1.325.69,1.822,2.291,2.07l1.9.3c3.947.635,5.853,2.4,5.853,5.714,0,3.7-2.705,6.266-7.509,6.266A9.367,9.367,0,0,1,262.326,41.6Z" transform="translate(-17.288 -23.716)" fill="#231f20"/><path d="M285.348,44.391c-2.815,0-4.306-1.463-4.306-4.223V33.074H279V29.9h1.021c1.1,0,1.436-.552,1.436-1.546V25.98h3.671V29.9H288v3.174h-2.871v8.143h2.65v3.174Z" transform="translate(-17.288 -23.716)" fill="#231f20"/><path d="M301.551,44.391a2.758,2.758,0,0,1-2.76-2.54h-.166c-.441,1.877-2.042,2.871-4.251,2.871-2.9,0-4.5-1.711-4.5-4.223,0-3.064,2.374-4.527,6.211-4.527h2.291v-.911c0-1.408-.69-2.291-2.4-2.291a3.577,3.577,0,0,0-3.119,1.711l-2.43-2.153c1.16-1.711,2.815-2.76,5.853-2.76,4.085,0,6.183,1.877,6.183,5.3v6.349h1.353v3.174ZM298.377,40V38.291H296.39c-1.573,0-2.4.58-2.4,1.628v.414c0,1.049.689,1.546,1.9,1.546C297.245,41.879,298.377,41.327,298.377,40Z" transform="translate(-17.288 -23.716)" fill="#231f20"/><path d="M311.46,44.391c-2.815,0-4.306-1.463-4.306-4.223V33.074h-2.043V29.9h1.021c1.1,0,1.436-.552,1.436-1.546V25.98h3.671V29.9h2.871v3.174h-2.871v8.143h2.65v3.174Z" transform="translate(-17.288 -23.716)" fill="#231f20"/><path d="M315.933,37.131c0-4.582,2.429-7.563,6.79-7.563,4.8,0,6.735,3.478,6.735,7.4V38.18h-9.3V38.4a2.847,2.847,0,0,0,3.2,3.119,4.592,4.592,0,0,0,3.561-1.739l2.043,2.54a7.855,7.855,0,0,1-6.073,2.4C318.444,44.722,315.933,41.769,315.933,37.131Zm4.223-1.573v.221h5.079V35.53c0-1.767-.8-2.953-2.429-2.953S320.155,33.764,320.155,35.558Z" transform="translate(-17.288 -23.716)" fill="#231f20"/><path d="M331.17,42.127l2.4-2.429a5.04,5.04,0,0,0,3.837,1.849c1.6,0,2.153-.524,2.153-1.38,0-.718-.442-1.077-1.463-1.215l-1.574-.193c-3.284-.414-4.886-1.85-4.886-4.472,0-2.788,2.181-4.72,5.632-4.72a7.283,7.283,0,0,1,5.906,2.263l-2.346,2.4a4.846,4.846,0,0,0-3.34-1.49c-1.381,0-1.933.5-1.933,1.214,0,.773.331,1.187,1.519,1.353l1.628.221c3.147.414,4.775,1.85,4.775,4.361,0,2.788-2.484,4.831-6.21,4.831A7.566,7.566,0,0,1,331.17,42.127Z" transform="translate(-17.288 -23.716)" fill="#231f20"/><path d="M259.582,508.947c0-6.542,3.368-9.965,8.475-9.965s8.474,3.423,8.474,9.965-3.367,9.965-8.474,9.965S259.582,515.489,259.582,508.947Zm12.5,1.436v-2.871c0-3.063-1.519-4.8-4.03-4.8s-4.03,1.739-4.03,4.8v2.871c0,3.063,1.519,4.8,4.03,4.8S272.087,513.446,272.087,510.383Z" transform="translate(-17.288 -23.716)" fill="#231f20"/><path d="M284.895,518.581c-2.815,0-4.306-1.463-4.306-4.224v-7.094h-2.043v-3.175h1.021c1.1,0,1.436-.552,1.436-1.546V500.17h3.671v3.919h2.871v3.175h-2.871v8.143h2.65v3.175Z" transform="translate(-17.288 -23.716)" fill="#231f20"/><path d="M290.388,498.154h4.086v8.392h.165a3.952,3.952,0,0,1,4.03-2.788c2.953,0,4.527,2.1,4.527,5.741v9.082H299.11v-8.75c0-1.85-.524-2.761-2.015-2.761-1.325,0-2.622.69-2.622,2.125v9.386h-4.086Z" transform="translate(-17.288 -23.716)" fill="#231f20"/><path d="M305.929,511.321c0-4.582,2.429-7.563,6.79-7.563,4.8,0,6.735,3.479,6.735,7.4v1.215h-9.3v.221a2.847,2.847,0,0,0,3.2,3.119,4.592,4.592,0,0,0,3.561-1.739l2.043,2.54a7.856,7.856,0,0,1-6.072,2.4C308.44,518.912,305.929,515.959,305.929,511.321Zm4.223-1.573v.221h5.079v-.249c0-1.767-.8-2.953-2.429-2.953S310.151,507.953,310.151,509.748Z" transform="translate(-17.288 -23.716)" fill="#231f20"/><path d="M322.353,518.581V504.089h4.086v3.147h.138a3.634,3.634,0,0,1,3.7-3.147h.717v3.81h-1.021c-2.374,0-3.533.524-3.533,2.208v8.475Z" transform="translate(-17.288 -23.716)" fill="#231f20"/><path d="M332.317,516.317l2.4-2.429a5.041,5.041,0,0,0,3.837,1.849c1.6,0,2.153-.524,2.153-1.38,0-.718-.442-1.076-1.463-1.215l-1.574-.192c-3.284-.414-4.886-1.85-4.886-4.472,0-2.788,2.181-4.721,5.632-4.721a7.282,7.282,0,0,1,5.906,2.264l-2.346,2.4a4.844,4.844,0,0,0-3.34-1.49c-1.381,0-1.933.5-1.933,1.214,0,.773.331,1.188,1.519,1.353l1.628.221c3.147.414,4.775,1.85,4.775,4.361,0,2.788-2.484,4.831-6.21,4.831A7.566,7.566,0,0,1,332.317,516.317Z" transform="translate(-17.288 -23.716)" fill="#231f20"/><path d="M402.259,140.16c0-6.514,3.34-10.1,8.529-10.1,3.533,0,5.8,1.435,7.205,4.527l-3.616,1.877a3.416,3.416,0,0,0-3.589-2.677c-2.456,0-4.085,1.656-4.085,4.692v3.091c0,3.037,1.629,4.693,4.085,4.693a3.954,3.954,0,0,0,3.837-2.871l3.423,1.988a7.53,7.53,0,0,1-7.26,4.609C405.6,149.987,402.259,146.675,402.259,140.16Z" transform="translate(-17.288 -23.716)" fill="#231f20"/><path d="M431.463,149.656a2.758,2.758,0,0,1-2.76-2.54h-.166c-.441,1.877-2.042,2.871-4.251,2.871-2.9,0-4.5-1.711-4.5-4.223,0-3.064,2.374-4.527,6.211-4.527h2.291v-.911c0-1.408-.69-2.291-2.4-2.291a3.577,3.577,0,0,0-3.119,1.711l-2.43-2.153c1.16-1.711,2.815-2.76,5.853-2.76,4.085,0,6.183,1.877,6.183,5.3v6.349h1.353v3.174Zm-3.174-4.389v-1.711H426.3c-1.573,0-2.4.58-2.4,1.628v.414c0,1.049.689,1.546,1.9,1.546C427.157,147.144,428.289,146.592,428.289,145.267Z" transform="translate(-17.288 -23.716)" fill="#231f20"/><path d="M436.459,149.656V135.164h4.086v2.457h.165a3.952,3.952,0,0,1,4.03-2.788c2.953,0,4.527,2.1,4.527,5.741v9.082h-4.086v-8.75c0-1.85-.524-2.761-2.015-2.761-1.325,0-2.622.69-2.622,2.125v9.385Z" transform="translate(-17.288 -23.716)" fill="#231f20"/><path d="M463.621,149.656a2.758,2.758,0,0,1-2.76-2.54H460.7c-.441,1.877-2.042,2.871-4.251,2.871-2.9,0-4.5-1.711-4.5-4.223,0-3.064,2.374-4.527,6.211-4.527h2.291v-.911c0-1.408-.69-2.291-2.4-2.291a3.577,3.577,0,0,0-3.119,1.711l-2.43-2.153c1.16-1.711,2.815-2.76,5.853-2.76,4.085,0,6.183,1.877,6.183,5.3v6.349h1.353v3.174Zm-3.174-4.389v-1.711H458.46c-1.573,0-2.4.58-2.4,1.628v.414c0,1.049.689,1.546,1.9,1.546C459.315,147.144,460.447,146.592,460.447,145.267Z" transform="translate(-17.288 -23.716)" fill="#231f20"/><path d="M477.506,147.227h-.138a3.957,3.957,0,0,1-3.893,2.76c-3.671,0-5.576-2.677-5.576-7.591s1.905-7.563,5.576-7.563a3.925,3.925,0,0,1,3.893,2.76h.138v-8.364h4.085v20.426h-4.085Zm0-2.677v-4.279c0-1.325-1.132-2.125-2.678-2.125a2.723,2.723,0,0,0-2.678,3.009v2.512a2.723,2.723,0,0,0,2.678,3.009C476.374,146.675,477.506,145.874,477.506,144.549Z" transform="translate(-17.288 -23.716)" fill="#231f20"/><path d="M496.109,149.656a2.758,2.758,0,0,1-2.76-2.54h-.166c-.441,1.877-2.042,2.871-4.251,2.871-2.9,0-4.5-1.711-4.5-4.223,0-3.064,2.374-4.527,6.211-4.527h2.291v-.911c0-1.408-.69-2.291-2.4-2.291a3.577,3.577,0,0,0-3.119,1.711l-2.43-2.153c1.16-1.711,2.815-2.76,5.853-2.76,4.085,0,6.183,1.877,6.183,5.3v6.349h1.353v3.174Zm-3.174-4.389v-1.711h-1.987c-1.573,0-2.4.58-2.4,1.628v.414c0,1.049.689,1.546,1.9,1.546C491.8,147.144,492.936,146.592,492.936,145.267Z" transform="translate(-17.288 -23.716)" fill="#231f20"/><path d="M391.465,468.265v-3.34h2.484V452.338h-2.484V449h9.164v3.34h-2.483v12.587h2.483v3.34Z" transform="translate(-17.288 -23.716)" fill="#231f20"/><path d="M403.914,468.265V453.773H408v2.456h.165a3.952,3.952,0,0,1,4.03-2.787c2.953,0,4.527,2.1,4.527,5.741v9.081h-4.086v-8.75c0-1.85-.524-2.761-2.015-2.761-1.325,0-2.622.69-2.622,2.126v9.385Z" transform="translate(-17.288 -23.716)" fill="#231f20"/><path d="M429.254,465.836h-.138a3.958,3.958,0,0,1-3.893,2.76c-3.671,0-5.576-2.677-5.576-7.591s1.905-7.562,5.576-7.562a3.926,3.926,0,0,1,3.893,2.76h.138v-8.363h4.085v20.426h-4.085Zm0-2.678V458.88c0-1.325-1.132-2.126-2.678-2.126a2.724,2.724,0,0,0-2.678,3.009v2.513a2.724,2.724,0,0,0,2.678,3.009C428.122,465.284,429.254,464.483,429.254,463.158Z" transform="translate(-17.288 -23.716)" fill="#231f20"/><path d="M436.817,450.213v-.607c0-1.159.718-2.016,2.374-2.016s2.374.856,2.374,2.016v.607c0,1.159-.718,2.015-2.374,2.015S436.817,451.372,436.817,450.213Zm.331,3.561h4.086v14.491h-4.086Z" transform="translate(-17.288 -23.716)" fill="#231f20"/><path d="M455.753,468.265a2.757,2.757,0,0,1-2.76-2.539h-.166c-.441,1.877-2.042,2.87-4.251,2.87-2.9,0-4.5-1.711-4.5-4.223,0-3.064,2.374-4.527,6.211-4.527h2.291v-.911c0-1.407-.69-2.291-2.4-2.291a3.577,3.577,0,0,0-3.119,1.712l-2.43-2.153c1.16-1.711,2.815-2.76,5.853-2.76,4.085,0,6.183,1.877,6.183,5.3v6.349h1.353v3.174Zm-3.174-4.389v-1.711h-1.987c-1.573,0-2.4.579-2.4,1.628v.414c0,1.049.689,1.546,1.9,1.546C451.447,465.753,452.579,465.2,452.579,463.876Z" transform="translate(-17.288 -23.716)" fill="#231f20"/><path d="M430.522,393.028h-.138c-.276,1.933-2.043,3.4-4.941,3.4-4.416,0-7.895-3.423-7.895-9.882,0-6.487,3.506-10.048,8.723-10.048a7.71,7.71,0,0,1,7.426,4.472l-3.423,1.96a3.984,3.984,0,0,0-4-2.705c-2.595,0-4.278,1.49-4.278,4.692V388c0,3.2,1.684,4.692,4.278,4.692,2.1,0,3.782-.993,3.782-2.871v-.966h-3.589v-3.506h7.591v10.738h-3.533Z" transform="translate(-17.288 -23.716)" fill="#231f20"/><path d="M437.01,388.833c0-4.582,2.429-7.563,6.79-7.563,4.8,0,6.735,3.479,6.735,7.4v1.215h-9.3v.221a2.847,2.847,0,0,0,3.2,3.119A4.592,4.592,0,0,0,448,391.482l2.043,2.54a7.857,7.857,0,0,1-6.073,2.4C439.521,396.424,437.01,393.471,437.01,388.833Zm4.223-1.573v.221h5.079v-.249c0-1.767-.8-2.953-2.429-2.953S441.232,385.465,441.232,387.26Z" transform="translate(-17.288 -23.716)" fill="#231f20"/><path d="M453.434,396.093V381.6h4.086v3.147h.138a3.634,3.634,0,0,1,3.7-3.147h.717v3.81h-1.021c-2.374,0-3.533.524-3.533,2.208v8.475Z" transform="translate(-17.288 -23.716)" fill="#231f20"/><path d="M464.585,396.093V381.6h4.086v2.457h.165a3.867,3.867,0,0,1,3.893-2.788,4.009,4.009,0,0,1,4.058,2.926h.083a4.5,4.5,0,0,1,4.416-2.926c2.788,0,4.334,2.1,4.334,5.741v9.082h-4.086v-8.75c0-1.878-.635-2.761-1.987-2.761a2.176,2.176,0,0,0-2.4,2.125v9.386H473.06v-8.75c0-1.878-.663-2.761-1.987-2.761a2.19,2.19,0,0,0-2.4,2.125v9.386Z" transform="translate(-17.288 -23.716)" fill="#231f20"/><path d="M499.973,396.093a2.758,2.758,0,0,1-2.76-2.54h-.166c-.441,1.877-2.042,2.871-4.251,2.871-2.9,0-4.5-1.712-4.5-4.224,0-3.063,2.374-4.526,6.211-4.526H496.8v-.911c0-1.408-.69-2.291-2.4-2.291a3.578,3.578,0,0,0-3.119,1.711l-2.43-2.152c1.159-1.712,2.815-2.761,5.853-2.761,4.085,0,6.183,1.877,6.183,5.3v6.349h1.353v3.175ZM496.8,391.7v-1.712h-1.987c-1.573,0-2.4.58-2.4,1.629v.414c0,1.049.689,1.546,1.9,1.546C495.667,393.581,496.8,393.028,496.8,391.7Z" transform="translate(-17.288 -23.716)" fill="#231f20"/><path d="M504.969,396.093V381.6h4.086v2.457h.165a3.952,3.952,0,0,1,4.03-2.788c2.953,0,4.527,2.1,4.527,5.741v9.082h-4.086v-8.75c0-1.85-.524-2.761-2.015-2.761-1.325,0-2.622.69-2.622,2.125v9.386Z" transform="translate(-17.288 -23.716)" fill="#231f20"/><path d="M530.062,381.6h3.809l-5.575,16.728c-.746,2.236-1.96,3.285-4.444,3.285h-2.54v-3.175h2.733l.5-1.6L519.462,381.6h4.058l2.125,6.763,1.049,4.2h.166l1.076-4.2Z" transform="translate(-17.288 -23.716)" fill="#231f20"/><line x1="247.935" y1="37.233" x2="223.306" y2="91.249" fill="none" stroke="#000" stroke-miterlimit="10" stroke-width="2"/><path d="M437.617,245.564v-3.34H440.1V229.637h-2.484V226.3h9.164v3.34H444.3v12.587h2.483v3.34Z" transform="translate(-17.288 -23.716)" fill="#231f20"/><path d="M450.066,245.564V231.073h4.086v3.147h.138a3.634,3.634,0,0,1,3.7-3.147h.717v3.809h-1.021c-2.374,0-3.533.524-3.533,2.208v8.474Z" transform="translate(-17.288 -23.716)" fill="#231f20"/><path d="M460.17,238.3c0-4.582,2.429-7.563,6.79-7.563,4.8,0,6.735,3.478,6.735,7.4v1.214h-9.3v.221a2.847,2.847,0,0,0,3.2,3.119,4.592,4.592,0,0,0,3.561-1.739l2.043,2.54a7.855,7.855,0,0,1-6.073,2.4C462.682,245.9,460.17,242.942,460.17,238.3Zm4.223-1.573v.221h5.079V236.7c0-1.767-.8-2.953-2.429-2.953S464.393,234.937,464.393,236.731Z" transform="translate(-17.288 -23.716)" fill="#231f20"/><path d="M480.651,245.564c-2.787,0-4.058-1.408-4.058-3.975V225.138h4.086V242.39H482.5v3.174Z" transform="translate(-17.288 -23.716)" fill="#231f20"/><path d="M495.667,245.564a2.758,2.758,0,0,1-2.76-2.54h-.166c-.441,1.877-2.042,2.871-4.251,2.871-2.9,0-4.5-1.711-4.5-4.223,0-3.064,2.374-4.527,6.211-4.527h2.291v-.911c0-1.408-.69-2.291-2.4-2.291a3.577,3.577,0,0,0-3.119,1.711l-2.43-2.153c1.16-1.711,2.815-2.76,5.853-2.76,4.085,0,6.183,1.877,6.183,5.3v6.349h1.353v3.174Zm-3.174-4.389v-1.711h-1.987c-1.573,0-2.4.58-2.4,1.628v.414c0,1.049.689,1.546,1.9,1.546C491.361,243.053,492.493,242.5,492.493,241.176Z" transform="translate(-17.288 -23.716)" fill="#231f20"/><path d="M500.663,245.564V231.073h4.086v2.457h.165a3.952,3.952,0,0,1,4.03-2.788c2.953,0,4.527,2.1,4.527,5.741v9.082h-4.086v-8.75c0-1.85-.524-2.761-2.015-2.761-1.325,0-2.622.69-2.622,2.125v9.385Z" transform="translate(-17.288 -23.716)" fill="#231f20"/><path d="M526,243.135h-.138a3.957,3.957,0,0,1-3.893,2.76c-3.671,0-5.576-2.677-5.576-7.591s1.905-7.563,5.576-7.563a3.925,3.925,0,0,1,3.893,2.76H526v-8.364h4.085v20.426H526Zm0-2.677v-4.279c0-1.325-1.132-2.125-2.678-2.125a2.723,2.723,0,0,0-2.678,3.009v2.512a2.723,2.723,0,0,0,2.678,3.009C524.872,242.583,526,241.783,526,240.458Z" transform="translate(-17.288 -23.716)" fill="#231f20"/><path d="M439.338,301.233v11.814c0,2.705.993,4.058,3.478,4.058s3.479-1.353,3.479-4.058V301.233h4.085v11.373c0,5.687-2.043,8.226-7.563,8.226s-7.563-2.539-7.563-8.226V301.233Z" transform="translate(-17.288 -23.716)" fill="#231f20"/><path d="M461.227,312.109l-2.512,3.036V320.5h-4.2V301.233h4.2V310.4h.165l2.733-3.727,4.333-5.438h4.748l-6.486,7.923,7.066,11.345h-4.941Z" transform="translate(-17.288 -23.716)" fill="#231f20"/><line x1="369.99" y1="132.364" x2="321.045" y2="164.812" fill="none" stroke="#000" stroke-miterlimit="10" stroke-width="2"/><line x1="398.88" y1="216.828" x2="342.712" y2="225.784" fill="none" stroke="#000" stroke-miterlimit="10" stroke-width="2"/><line x1="398.88" y1="282.758" x2="346.712" y2="273.935" fill="none" stroke="#000" stroke-miterlimit="10" stroke-width="2"/><line x1="383.591" y1="351.846" x2="329.38" y2="314.321" fill="none" stroke="#000" stroke-miterlimit="10" stroke-width="2"/><line x1="370.796" y1="401.78" x2="309.13" y2="350.363" fill="none" stroke="#000" stroke-miterlimit="10" stroke-width="2"/><line x1="270.24" y1="457.22" x2="239.292" y2="381.213" fill="none" stroke="#000" stroke-miterlimit="10" stroke-width="2"/><path d="M198.316,452.483c-5.367,0-10.483.5-15.464-.111a258.047,258.047,0,0,1-25.733-4.342,172.86,172.86,0,0,1-43.735-16.507A179.544,179.544,0,0,1,85.53,413.115,188.3,188.3,0,0,1,60.378,388.58a175.974,175.974,0,0,1-25.167-38.842,184.908,184.908,0,0,1-17.828-84.053A182.9,182.9,0,0,1,51.969,164.329a186.56,186.56,0,0,1,29.809-32.114,176.4,176.4,0,0,1,39.5-25.521A183.654,183.654,0,0,1,203.4,89.145a186.536,186.536,0,0,1,62.2,12.524,179.273,179.273,0,0,1,43.632,24.413c3.247,2.454,6.315,5.143,9.494,7.688,1.235.988,1.333,1.782.186,3.039q-14.636,16.036-29.157,32.177-18.139,20.1-36.245,40.236-13.611,15.112-27.224,30.222c-8.961,9.952-17.949,19.881-26.826,29.908a5.822,5.822,0,0,0-1.1,3.6q-.081,70.249-.046,140.5,0,18.125,0,36.249Z" transform="translate(-17.288 -23.716)" fill="#ff509e"/><path d="M200.4,453.191V273.573L330.044,397.835C294.166,433.6,251.119,451.951,200.4,453.191Z" transform="translate(-17.288 -23.716)" fill="#5a3ec8"/><path d="M204.3,268.094a6.522,6.522,0,0,1,.818-1.981c5.34-5.921,10.767-11.763,16.1-17.69,6.718-7.465,13.354-15,20.056-22.482,4.877-5.442,9.816-10.828,14.707-16.258q10.917-12.121,21.807-24.266c4.834-5.369,9.7-10.707,14.536-16.075q11-12.213,21.981-24.445c2-2.222,4.1-4.362,6.052-6.624,1.26-1.458,2.169-1.208,3.453.049a202.609,202.609,0,0,1,26.559,31.287A180.733,180.733,0,0,1,372.343,215c.127.389.22.788.409,1.477-3.016.97-5.98,1.959-8.966,2.879q-25.692,7.912-51.393,15.8-36.044,11.092-72.085,22.2-17.248,5.3-34.52,10.525a11.229,11.229,0,0,1-1.465.247Z" transform="translate(-17.288 -23.716)" fill="#e62325"/><path d="M373.375,218.592c4.789,12.974,9.047,42.854,7.692,53.944L207.372,270.1l-.069-.38Z" transform="translate(-17.288 -23.716)" fill="#fe6100"/><path d="M207.888,272.2,381.3,274.638a182.552,182.552,0,0,1-7.6,48.466L207.854,272.572Z" transform="translate(-17.288 -23.716)" fill="#fed500"/><path d="M209.72,275.336,373,325.081a176.75,176.75,0,0,1-18.285,40.584l-145.3-89.622Z" transform="translate(-17.288 -23.716)" fill="#95d13c"/><path d="M211.428,279.982c7.18,4.356,14.387,8.668,21.537,13.074q59.5,36.673,118.974,73.388c.483.3.928.658,1.586,1.129a177.144,177.144,0,0,1-22,28.52,15.571,15.571,0,0,1-1.4-1.066q-16.109-15.494-32.205-31-25.033-24.045-50.1-48.061-17.484-16.764-34.975-33.52a24.253,24.253,0,0,1-1.747-2.076Z" transform="translate(-17.288 -23.716)" fill="#00b6cb"/><path d="M209.842,279.077l1.585.906-.325.384q-.665-.61-1.325-1.223Z" transform="translate(-17.288 -23.716)" fill="#231f20"/><path d="M204.324,268.117c-.182.122-.363.246-.55.359,0,0-.081-.12-.125-.184l.656-.2Z" transform="translate(-17.288 -23.716)" fill="#231f20"/><path d="M209.777,279.144l-.336-.216.4.149Z" transform="translate(-17.288 -23.716)" fill="#231f20"/></svg>