<svg xmlns="http://www.w3.org/2000/svg" viewBox="0 0 516.582 495.196"><title>pie-chart</title><path d="M157.312 1.408v11.814c0 2.705.993 4.058 3.478 4.058s3.479-1.353 3.479-4.058V1.408h4.085v11.376c0 5.687-2.043 8.226-7.563 8.226s-7.563-2.539-7.563-8.226V1.408zm14.963 19.267V6.184h4.086v2.457h.165a3.952 3.952 0 0 1 4.03-2.788c2.953 0 4.527 2.1 4.527 5.741v9.082h-4.086v-8.75c0-1.85-.524-2.761-2.015-2.761-1.325 0-2.622.69-2.622 2.125v9.385zm16.121-18.052v-.607c0-1.159.718-2.015 2.374-2.015s2.374.856 2.374 2.015v.607c0 1.159-.718 2.015-2.374 2.015s-2.374-.854-2.374-2.015zm.331 3.561h4.085v14.491h-4.086zM201.7 20.675c-2.815 0-4.306-1.463-4.306-4.223V9.358h-2.042V6.184h1.021c1.1 0 1.436-.552 1.436-1.546V2.264h3.671v3.92h2.871v3.174h-2.871v8.143h2.65v3.174zm4.473-7.26c0-4.582 2.429-7.563 6.79-7.563 4.8 0 6.735 3.478 6.735 7.4v1.212h-9.3v.22a2.847 2.847 0 0 0 3.2 3.119 4.592 4.592 0 0 0 3.561-1.739l2.043 2.54a7.854 7.854 0 0 1-6.072 2.4c-4.445.002-6.957-2.951-6.957-7.589zm4.223-1.573v.221h5.079v-.249c0-1.767-.8-2.953-2.429-2.953s-2.65 1.187-2.65 2.981zm21.088 6.404h-.138a3.957 3.957 0 0 1-3.893 2.76c-3.671 0-5.576-2.677-5.576-7.591s1.905-7.563 5.576-7.563a3.925 3.925 0 0 1 3.893 2.76h.138V.249h4.085v20.426h-4.085zm0-2.677V11.29c0-1.325-1.132-2.125-2.678-2.125a2.723 2.723 0 0 0-2.678 3.009v2.51a2.723 2.723 0 0 0 2.678 3.009c1.547.001 2.678-.8 2.678-2.124zm13.554 2.315l2.761-2.788a6.276 6.276 0 0 0 4.83 2.208c2.043 0 3.036-.911 3.036-2.318 0-1.049-.441-1.822-2.235-2.07l-1.9-.249c-4.059-.524-5.907-2.512-5.907-5.742 0-3.45 2.705-5.852 7.231-5.852a8.579 8.579 0 0 1 6.681 2.705l-2.788 2.815a5.038 5.038 0 0 0-4.141-1.822c-1.877 0-2.788.718-2.788 1.877 0 1.325.69 1.822 2.291 2.07l1.9.3c3.947.635 5.853 2.4 5.853 5.714 0 3.7-2.705 6.266-7.509 6.266a9.367 9.367 0 0 1-7.315-3.114zm23.022 2.791c-2.815 0-4.306-1.463-4.306-4.223V9.358h-2.042V6.184h1.021c1.1 0 1.436-.552 1.436-1.546V2.264h3.671v3.92h2.872v3.174h-2.871v8.143h2.65v3.174zm16.203 0a2.758 2.758 0 0 1-2.76-2.54h-.166c-.441 1.877-2.042 2.871-4.251 2.871-2.9 0-4.5-1.711-4.5-4.223 0-3.064 2.374-4.527 6.211-4.527h2.291v-.911c0-1.408-.69-2.291-2.4-2.291a3.577 3.577 0 0 0-3.119 1.711l-2.43-2.153c1.16-1.711 2.815-2.76 5.853-2.76 4.085 0 6.183 1.877 6.183 5.3v6.349h1.353v3.174zm-3.174-4.391v-1.709h-1.987c-1.573 0-2.4.58-2.4 1.628v.414c0 1.049.689 1.546 1.9 1.546 1.355 0 2.487-.552 2.487-1.879zm13.083 4.391c-2.815 0-4.306-1.463-4.306-4.223V9.358h-2.043V6.184h1.021c1.1 0 1.436-.552 1.436-1.546V2.264h3.671v3.92h2.871v3.174h-2.871v8.143h2.65v3.174zm4.473-7.26c0-4.582 2.429-7.563 6.79-7.563 4.8 0 6.735 3.478 6.735 7.4v1.212h-9.3v.22a2.847 2.847 0 0 0 3.2 3.119 4.592 4.592 0 0 0 3.561-1.739l2.043 2.54a7.855 7.855 0 0 1-6.073 2.4c-4.445.002-6.956-2.951-6.956-7.589zm4.223-1.573v.221h5.079v-.249c0-1.767-.8-2.953-2.429-2.953s-2.651 1.187-2.651 2.981zm11.014 6.569l2.4-2.429a5.04 5.04 0 0 0 3.837 1.849c1.6 0 2.153-.524 2.153-1.38 0-.718-.442-1.077-1.463-1.215l-1.574-.193c-3.284-.414-4.886-1.85-4.886-4.472 0-2.788 2.181-4.72 5.632-4.72a7.283 7.283 0 0 1 5.906 2.263l-2.346 2.4a4.846 4.846 0 0 0-3.34-1.49c-1.381 0-1.933.5-1.933 1.214 0 .773.331 1.187 1.519 1.353l1.628.221c3.147.414 4.775 1.85 4.775 4.361 0 2.788-2.484 4.831-6.21 4.831a7.566 7.566 0 0 1-6.098-2.593zm-71.588 466.82c0-6.542 3.368-9.965 8.475-9.965s8.474 3.423 8.474 9.965-3.367 9.965-8.474 9.965-8.475-3.423-8.475-9.965zm12.5 1.436v-2.871c0-3.063-1.519-4.8-4.03-4.8s-4.03 1.739-4.03 4.8v2.871c0 3.063 1.519 4.8 4.03 4.8s4.035-1.737 4.035-4.8zm12.813 8.198c-2.815 0-4.306-1.463-4.306-4.224v-7.094h-2.043v-3.175h1.021c1.1 0 1.436-.552 1.436-1.546v-2.372h3.671v3.919h2.871v3.175h-2.871v8.143h2.65v3.175zm5.493-20.427h4.086v8.392h.165a3.952 3.952 0 0 1 4.03-2.788c2.953 0 4.527 2.1 4.527 5.741v9.082h-4.086v-8.75c0-1.85-.524-2.761-2.015-2.761-1.325 0-2.622.69-2.622 2.125v9.386h-4.086zm15.541 13.167c0-4.582 2.429-7.563 6.79-7.563 4.8 0 6.735 3.479 6.735 7.4v1.215h-9.3v.221a2.847 2.847 0 0 0 3.2 3.119 4.592 4.592 0 0 0 3.561-1.739l2.043 2.54a7.856 7.856 0 0 1-6.072 2.4c-4.446-.002-6.957-2.955-6.957-7.593zm4.223-1.573v.221h5.079v-.249c0-1.767-.8-2.953-2.429-2.953s-2.651 1.186-2.651 2.981zm12.201 8.833v-14.492h4.086v3.147h.138a3.634 3.634 0 0 1 3.7-3.147h.717v3.81h-1.021c-2.374 0-3.533.524-3.533 2.208v8.475zm9.964-2.264l2.4-2.429a5.041 5.041 0 0 0 3.837 1.849c1.6 0 2.153-.524 2.153-1.38 0-.718-.442-1.076-1.463-1.215l-1.574-.192c-3.284-.414-4.886-1.85-4.886-4.472 0-2.788 2.181-4.721 5.632-4.721a7.282 7.282 0 0 1 5.906 2.264l-2.346 2.4a4.844 4.844 0 0 0-3.34-1.49c-1.381 0-1.933.5-1.933 1.214 0 .773.331 1.188 1.519 1.353l1.628.221c3.147.414 4.775 1.85 4.775 4.361 0 2.788-2.484 4.831-6.21 4.831a7.566 7.566 0 0 1-6.098-2.594zm69.942-376.157c0-6.514 3.34-10.1 8.529-10.1 3.533 0 5.8 1.435 7.205 4.527l-3.616 1.877a3.416 3.416 0 0 0-3.589-2.677c-2.456 0-4.085 1.656-4.085 4.692v3.091c0 3.037 1.629 4.693 4.085 4.693a3.954 3.954 0 0 0 3.837-2.871l3.423 1.988a7.53 7.53 0 0 1-7.26 4.609c-5.188-.002-8.529-3.314-8.529-9.829zm29.204 9.496a2.758 2.758 0 0 1-2.76-2.54h-.166c-.441 1.877-2.042 2.871-4.251 2.871-2.9 0-4.5-1.711-4.5-4.223 0-3.064 2.374-4.527 6.211-4.527H411v-.911c0-1.408-.69-2.291-2.4-2.291a3.577 3.577 0 0 0-3.119 1.711l-2.43-2.153c1.16-1.711 2.815-2.76 5.853-2.76 4.085 0 6.183 1.877 6.183 5.3v6.349h1.353v3.174zm-3.174-4.389v-1.711h-1.989c-1.573 0-2.4.58-2.4 1.628v.414c0 1.049.689 1.546 1.9 1.546 1.357 0 2.489-.552 2.489-1.877zm8.17 4.389v-14.492h4.086v2.457h.165a3.952 3.952 0 0 1 4.03-2.788c2.953 0 4.527 2.1 4.527 5.741v9.082h-4.086v-8.75c0-1.85-.524-2.761-2.015-2.761-1.325 0-2.622.69-2.622 2.125v9.385zm27.162 0a2.758 2.758 0 0 1-2.76-2.54h-.161c-.441 1.877-2.042 2.871-4.251 2.871-2.9 0-4.5-1.711-4.5-4.223 0-3.064 2.374-4.527 6.211-4.527h2.291v-.911c0-1.408-.69-2.291-2.4-2.291a3.577 3.577 0 0 0-3.119 1.711l-2.43-2.153c1.16-1.711 2.815-2.76 5.853-2.76 4.085 0 6.183 1.877 6.183 5.3v6.349h1.353v3.174zm-3.174-4.389v-1.711h-1.987c-1.573 0-2.4.58-2.4 1.628v.414c0 1.049.689 1.546 1.9 1.546 1.355 0 2.487-.552 2.487-1.877zm17.059 1.96h-.138a3.957 3.957 0 0 1-3.893 2.76c-3.671 0-5.576-2.677-5.576-7.591s1.905-7.563 5.576-7.563a3.925 3.925 0 0 1 3.893 2.76h.138v-8.364h4.085v20.426h-4.085zm0-2.677v-4.279c0-1.325-1.132-2.125-2.678-2.125a2.723 2.723 0 0 0-2.678 3.009v2.512a2.723 2.723 0 0 0 2.678 3.009c1.546-.001 2.678-.802 2.678-2.127zm18.603 5.106a2.758 2.758 0 0 1-2.76-2.54h-.166c-.441 1.877-2.042 2.871-4.251 2.871-2.9 0-4.5-1.711-4.5-4.223 0-3.064 2.374-4.527 6.211-4.527h2.291v-.911c0-1.408-.69-2.291-2.4-2.291a3.577 3.577 0 0 0-3.119 1.711l-2.43-2.153c1.16-1.711 2.815-2.76 5.853-2.76 4.085 0 6.183 1.877 6.183 5.3v6.349h1.353v3.174zm-3.174-4.389v-1.711h-1.987c-1.573 0-2.4.58-2.4 1.628v.414c0 1.049.689 1.546 1.9 1.546 1.352 0 2.488-.552 2.488-1.877zm-101.47 322.998v-3.34h2.484v-12.587h-2.484v-3.338h9.164v3.34h-2.483v12.587h2.483v3.34zm12.449 0v-14.492h4.086v2.456h.165a3.952 3.952 0 0 1 4.03-2.787c2.953 0 4.527 2.1 4.527 5.741v9.081h-4.086v-8.75c0-1.85-.524-2.761-2.015-2.761-1.325 0-2.622.69-2.622 2.126v9.385zm25.34-2.429h-.138a3.958 3.958 0 0 1-3.893 2.76c-3.671 0-5.576-2.677-5.576-7.591s1.905-7.562 5.576-7.562a3.926 3.926 0 0 1 3.893 2.76h.138v-8.363h4.085v20.426h-4.085zm0-2.678v-4.278c0-1.325-1.132-2.126-2.678-2.126a2.724 2.724 0 0 0-2.678 3.009v2.513a2.724 2.724 0 0 0 2.678 3.009c1.546-.001 2.678-.802 2.678-2.127zm7.563-12.945v-.607c0-1.159.718-2.016 2.374-2.016s2.374.856 2.374 2.016v.607c0 1.159-.718 2.015-2.374 2.015s-2.374-.856-2.374-2.015zm.331 3.561h4.086v14.491h-4.086zm18.605 14.491a2.757 2.757 0 0 1-2.76-2.539h-.166c-.441 1.877-2.042 2.87-4.251 2.87-2.9 0-4.5-1.711-4.5-4.223 0-3.064 2.374-4.527 6.211-4.527h2.291v-.911c0-1.407-.69-2.291-2.4-2.291a3.577 3.577 0 0 0-3.119 1.712l-2.43-2.153c1.16-1.711 2.815-2.76 5.853-2.76 4.085 0 6.183 1.877 6.183 5.3v6.349h1.353v3.174zm-3.174-4.389v-1.711h-1.987c-1.573 0-2.4.579-2.4 1.628v.414c0 1.049.689 1.546 1.9 1.546 1.355 0 2.487-.553 2.487-1.877zm-22.057-70.848h-.138c-.276 1.933-2.043 3.4-4.941 3.4-4.416 0-7.895-3.423-7.895-9.882 0-6.487 3.506-10.048 8.723-10.048a7.71 7.71 0 0 1 7.426 4.472l-3.423 1.96a3.984 3.984 0 0 0-4-2.705c-2.595 0-4.278 1.49-4.278 4.692v3.083c0 3.2 1.684 4.692 4.278 4.692 2.1 0 3.782-.993 3.782-2.871v-.966h-3.589v-3.506h7.591v10.738h-3.533zm6.488-4.195c0-4.582 2.429-7.563 6.79-7.563 4.8 0 6.735 3.479 6.735 7.4v1.215h-9.3v.221a2.847 2.847 0 0 0 3.2 3.119 4.592 4.592 0 0 0 3.565-1.743l2.043 2.54a7.857 7.857 0 0 1-6.073 2.4c-4.449.002-6.96-2.951-6.96-7.589zm4.223-1.573v.221h5.079v-.249c0-1.767-.8-2.953-2.429-2.953s-2.651 1.186-2.651 2.981zm12.201 8.833v-14.493h4.086v3.147h.138a3.634 3.634 0 0 1 3.7-3.147h.717v3.81h-1.021c-2.374 0-3.533.524-3.533 2.208v8.475zm11.151 0v-14.493h4.086v2.457h.165a3.867 3.867 0 0 1 3.893-2.788 4.009 4.009 0 0 1 4.058 2.926h.083a4.5 4.5 0 0 1 4.416-2.926c2.788 0 4.334 2.1 4.334 5.741v9.082h-4.086v-8.75c0-1.878-.635-2.761-1.987-2.761a2.176 2.176 0 0 0-2.4 2.125v9.386h-4.087v-8.75c0-1.878-.663-2.761-1.987-2.761a2.19 2.19 0 0 0-2.4 2.125v9.386zm35.388 0a2.758 2.758 0 0 1-2.76-2.54h-.166c-.441 1.877-2.042 2.871-4.251 2.871-2.9 0-4.5-1.712-4.5-4.224 0-3.063 2.374-4.526 6.211-4.526h2.293v-.911c0-1.408-.69-2.291-2.4-2.291a3.578 3.578 0 0 0-3.119 1.711l-2.43-2.152c1.159-1.712 2.815-2.761 5.853-2.761 4.085 0 6.183 1.877 6.183 5.3v6.349h1.353v3.175zm-3.173-4.393v-1.712h-1.987c-1.573 0-2.4.58-2.4 1.629v.414c0 1.049.689 1.546 1.9 1.546 1.354.004 2.487-.549 2.487-1.877zm8.169 4.393v-14.493h4.086v2.457h.165a3.952 3.952 0 0 1 4.03-2.788c2.953 0 4.527 2.1 4.527 5.741v9.082h-4.086v-8.75c0-1.85-.524-2.761-2.015-2.761-1.325 0-2.622.69-2.622 2.125v9.386zm25.093-14.493h3.809l-5.575 16.728c-.746 2.236-1.96 3.285-4.444 3.285h-2.54v-3.175h2.733l.5-1.6-5.083-15.238h4.058l2.125 6.763 1.049 4.2h.166l1.076-4.2z" fill="#231f20"/><path fill="none" stroke="#000" stroke-miterlimit="10" stroke-width="2" d="M247.935 37.233l-24.629 54.016"/><path d="M420.329 221.848v-3.34h2.483v-12.587h-2.484v-3.337h9.164v3.34h-2.48v12.587h2.483v3.34zm12.449 0v-14.491h4.086v3.147h.138a3.634 3.634 0 0 1 3.7-3.147h.717v3.809h-1.021c-2.374 0-3.533.524-3.533 2.208v8.474zm10.104-7.264c0-4.582 2.429-7.563 6.79-7.563 4.8 0 6.735 3.478 6.735 7.4v1.214h-9.3v.221a2.847 2.847 0 0 0 3.2 3.119 4.592 4.592 0 0 0 3.561-1.739l2.043 2.54a7.855 7.855 0 0 1-6.073 2.4c-4.444.008-6.956-2.95-6.956-7.592zm4.223-1.573v.221h5.079v-.248c0-1.767-.8-2.953-2.429-2.953s-2.65 1.19-2.65 2.984zm16.258 8.837c-2.787 0-4.058-1.408-4.058-3.975v-16.451h4.086v17.252h1.821v3.174zm15.016 0a2.758 2.758 0 0 1-2.76-2.54h-.166c-.441 1.877-2.042 2.871-4.251 2.871-2.9 0-4.5-1.711-4.5-4.223 0-3.064 2.374-4.527 6.211-4.527h2.291v-.911c0-1.408-.69-2.291-2.4-2.291a3.577 3.577 0 0 0-3.119 1.711l-2.43-2.153c1.16-1.711 2.815-2.76 5.853-2.76 4.085 0 6.183 1.877 6.183 5.3v6.349h1.353v3.174zm-3.174-4.389v-1.711h-1.987c-1.573 0-2.4.58-2.4 1.628v.414c0 1.049.689 1.546 1.9 1.546 1.355.001 2.487-.552 2.487-1.876zm8.17 4.389v-14.491h4.086v2.457h.165a3.952 3.952 0 0 1 4.03-2.788c2.953 0 4.527 2.1 4.527 5.741v9.082h-4.086v-8.75c0-1.85-.524-2.761-2.015-2.761-1.325 0-2.622.69-2.622 2.125v9.385zm25.337-2.429h-.138a3.957 3.957 0 0 1-3.893 2.76c-3.671 0-5.576-2.677-5.576-7.591s1.905-7.563 5.576-7.563a3.925 3.925 0 0 1 3.893 2.76h.138v-8.364h4.085v20.426h-4.085zm0-2.677v-4.279c0-1.325-1.132-2.125-2.678-2.125a2.723 2.723 0 0 0-2.678 3.009v2.512a2.723 2.723 0 0 0 2.678 3.009c1.55-.001 2.678-.801 2.678-2.126zm-86.662 60.775v11.814c0 2.705.993 4.058 3.478 4.058s3.479-1.353 3.479-4.058v-11.814h4.085v11.373c0 5.687-2.043 8.226-7.563 8.226s-7.563-2.539-7.563-8.226v-11.373zm21.889 10.876l-2.512 3.036v5.355h-4.2v-19.267h4.2v9.167h.165l2.733-3.727 4.333-5.438h4.748l-6.486 7.923 7.066 11.345h-4.941z" fill="#231f20"/><path fill="none" stroke="#000" stroke-miterlimit="10" stroke-width="2" d="M369.99 132.364l-48.945 32.448m77.835 52.016l-56.168 8.956m56.168 56.974l-52.168-8.823m36.879 77.911l-54.211-37.525m41.416 87.459l-61.666-51.417M270.24 457.22l-30.948-76.007"/><path d="M181.028 428.767c-5.367 0-10.483.5-15.464-.111a258.047 258.047 0 0 1-25.733-4.342 172.86 172.86 0 0 1-43.735-16.507 179.544 179.544 0 0 1-27.854-18.408 188.3 188.3 0 0 1-25.152-24.535 175.974 175.974 0 0 1-25.167-38.842A184.908 184.908 0 0 1 .095 241.969a182.9 182.9 0 0 1 34.586-101.356 186.56 186.56 0 0 1 29.809-32.114 176.4 176.4 0 0 1 39.5-25.521 183.654 183.654 0 0 1 82.122-17.549 186.536 186.536 0 0 1 62.2 12.524 179.273 179.273 0 0 1 43.632 24.413c3.247 2.454 6.315 5.143 9.494 7.688 1.235.988 1.333 1.782.186 3.039q-14.636 16.036-29.157 32.177-18.139 20.1-36.245 40.236-13.611 15.112-27.224 30.222c-8.961 9.952-17.949 19.881-26.826 29.908a5.822 5.822 0 0 0-1.1 3.6q-.081 70.249-.046 140.5v36.249z" fill="#ff509e"/><path d="M183.112 429.475V249.857l129.644 124.262c-35.878 35.765-78.925 54.116-129.644 55.356z" fill="#5a3ec8"/><path d="M187.012 244.378a6.522 6.522 0 0 1 .818-1.981c5.34-5.921 10.767-11.763 16.1-17.69 6.718-7.465 13.354-15 20.056-22.482 4.877-5.442 9.816-10.828 14.707-16.258q10.917-12.121 21.807-24.266c4.834-5.369 9.7-10.707 14.536-16.075q11-12.213 21.981-24.445c2-2.222 4.1-4.362 6.052-6.624 1.26-1.458 2.169-1.208 3.453.049a202.609 202.609 0 0 1 26.559 31.287 180.733 180.733 0 0 1 21.974 45.391c.127.389.22.788.409 1.477-3.016.97-5.98 1.959-8.966 2.879q-25.692 7.912-51.393 15.8-36.044 11.092-72.085 22.2-17.248 5.3-34.52 10.525a11.229 11.229 0 0 1-1.465.247z" fill="#e62325"/><path d="M356.087 194.876c4.789 12.974 9.047 42.854 7.692 53.944l-173.695-2.436-.069-.38z" fill="#fe6100"/><path d="M190.6 248.484l173.412 2.438a182.552 182.552 0 0 1-7.6 48.466l-165.846-50.532z" fill="#fed500"/><path d="M192.432 251.62l163.28 49.745a176.75 176.75 0 0 1-18.285 40.584l-145.3-89.622z" fill="#95d13c"/><path d="M194.14 256.266c7.18 4.356 14.387 8.668 21.537 13.074q59.5 36.673 118.974 73.388c.483.3.928.658 1.586 1.129a177.144 177.144 0 0 1-22 28.52 15.571 15.571 0 0 1-1.4-1.066q-16.109-15.494-32.205-31-25.033-24.045-50.1-48.061-17.484-16.764-34.975-33.52a24.253 24.253 0 0 1-1.747-2.076z" fill="#00b6cb"/><path d="M192.554 255.361l1.585.906-.325.384q-.665-.61-1.325-1.223zm-5.518-10.96c-.182.122-.363.246-.55.359l-.125-.184.656-.2zm5.453 11.027l-.336-.216.4.149z" fill="#231f20"/></svg>